<?xml version="1.0" encoding="utf-8"?>
<!-- Generator: Adobe Illustrator 16.0.0, SVG Export Plug-In . SVG Version: 6.00 Build 0)  -->
<!DOCTYPE svg PUBLIC "-//W3C//DTD SVG 1.1//EN" "http://www.w3.org/Graphics/SVG/1.1/DTD/svg11.dtd">
<svg version="1.1" id="Layer_1" xmlns="http://www.w3.org/2000/svg" xmlns:xlink="http://www.w3.org/1999/xlink" x="0px" y="0px"
	 width="64px" height="52px" viewBox="0 0 64 52" enable-background="new 0 0 64 52" xml:space="preserve">
<path fill-rule="evenodd" clip-rule="evenodd" fill="#333333" d="M45.951,24.932c-1.404-0.098-2.465-1.317-2.367-2.723
	c0.099-1.405,1.318-2.465,2.723-2.367c1.406,0.098,2.465,1.317,2.367,2.722C48.576,23.97,47.357,25.03,45.951,24.932L45.951,24.932z
	 M18.633,24.932c1.405-0.098,2.465-1.317,2.367-2.723s-1.317-2.465-2.723-2.367c-1.405,0.098-2.465,1.317-2.367,2.722
	C16.009,23.97,17.229,25.03,18.633,24.932L18.633,24.932z M44.881,42.308c-0.159,1.632-0.32,2.78-1.327,4.183h6.708
	c1.242,0,2.279-0.852,2.51-2.074l0.063-0.33c0.044-0.231,0.215-0.404,0.446-0.45s0.455,0.048,0.585,0.245
	c0.318,0.484,0.656,0.981,0.996,1.396c0.299,0.365,0.345,0.848,0.119,1.262c-0.921,1.688-2.695,2.786-4.719,2.786H38.029H26.543
	h-12.22c-2.023,0-3.798-1.099-4.718-2.786c-0.226-0.414-0.18-0.896,0.118-1.262c0.34-0.415,0.679-0.912,0.997-1.396
	c0.129-0.197,0.354-0.291,0.585-0.245s0.402,0.219,0.446,0.45l0.063,0.33c0.23,1.223,1.268,2.074,2.51,2.074h6.695
	c-1.007-1.402-1.167-2.552-1.327-4.183h-6.855c-0.216,0-0.401-0.111-0.501-0.302c-0.101-0.191-0.089-0.406,0.033-0.584l0.992-1.454
	c0.218-0.319,0.55-0.495,0.937-0.495h5.117c-0.137-1.395-0.273-2.787-0.41-4.183H17.64c-0.218,0-0.404-0.114-0.504-0.308
	c-0.1-0.192-0.084-0.41,0.042-0.588c0.543-0.766,1.075-1.521,1.504-2.383c0.405-0.93,0.505-1.938,0.324-2.892
	c-0.237-1.249-0.948-2.405-2.074-3.172c-1.131-0.769-2.463-1.008-3.703-0.772c-1.249,0.237-2.405,0.948-3.172,2.075
	c-0.895,1.311-1.678,2.459-2.648,3.882c-0.132,0.193-0.355,0.283-0.584,0.235c-0.229-0.048-0.398-0.22-0.441-0.449L4.195,19.335
	H3.444c-0.783,0-1.417-0.635-1.417-1.417c0-0.783,0.635-1.417,1.417-1.417c19.232,0,38.464,0,57.697,0
	c0.783,0,1.418,0.635,1.418,1.417c0,0.782-0.635,1.417-1.418,1.417h-0.75l-2.189,11.583c-0.043,0.229-0.212,0.4-0.441,0.449
	c-0.229,0.048-0.452-0.042-0.584-0.236c-0.971-1.422-1.754-2.57-2.648-3.881c-0.768-1.127-1.924-1.838-3.172-2.075
	c-1.24-0.235-2.572,0.003-3.703,0.772c-1.127,0.767-1.837,1.923-2.074,3.172c-0.18,0.944-0.082,1.944,0.314,2.866
	c0.406,0.822,0.967,1.629,1.518,2.41c0.125,0.178,0.141,0.395,0.041,0.588c-0.101,0.193-0.287,0.306-0.504,0.306h-1.379l-0.41,4.183
	h5.131c0.387,0,0.719,0.176,0.938,0.495l0.991,1.454c0.122,0.178,0.134,0.393,0.032,0.584c-0.1,0.19-0.285,0.302-0.5,0.302H44.881
	L44.881,42.308z M43.008,32.455l0.409-4.183h-9.713l0.001,4.183H43.008L43.008,32.455z M42.32,39.473l0.41-4.183h-9.025v4.183H42.32
	L42.32,39.473z M38.029,46.49c2.537,0,3.786-1.857,4.014-4.183h-8.338l-0.001,4.183H38.029L38.029,46.49z M22.529,42.308
	c0.229,2.335,1.432,4.183,4.014,4.183h4.338l0-4.183H22.529L22.529,42.308z M21.842,35.29c0.136,1.394,0.279,2.788,0.41,4.183h8.629
	V35.29H21.842L21.842,35.29z M21.155,28.272l0.409,4.183h9.317l0-4.183H21.155L21.155,28.272z M60.494,41.016
	c0.659,0.967,0.408,2.285-0.559,2.943s-2.285,0.408-2.943-0.559l-8.305-12.172c-0.658-0.967-0.408-2.285,0.56-2.944
	c0.968-0.657,2.285-0.407,2.944,0.56L60.494,41.016L60.494,41.016z M4.09,41.016c-0.658,0.967-0.408,2.285,0.559,2.943
	c0.967,0.658,2.286,0.408,2.944-0.559l8.304-12.172c0.659-0.968,0.408-2.285-0.559-2.944c-0.967-0.658-2.285-0.407-2.943,0.56
	L4.09,41.016L4.09,41.016z"/>
<path fill-rule="evenodd" clip-rule="evenodd" fill="#333333" d="M39.396,13.667h15.082v-3.499c0-2.342-1.91-4.252-4.252-4.252
	h-6.578c-2.342,0-4.252,1.91-4.252,4.252V13.667L39.396,13.667z"/>
<path fill-rule="evenodd" clip-rule="evenodd" fill="#333333" d="M26.771,13.667h9.792V4.458c0-0.781-0.637-1.417-1.418-1.417
	h-6.957c-0.781,0-1.417,0.637-1.417,1.417V13.667L26.771,13.667z"/>
<path fill-rule="evenodd" clip-rule="evenodd" fill="#333333" d="M10.107,13.667h13.829v-3.611c0-0.781-0.637-1.417-1.417-1.417
	H11.524c-0.781,0-1.417,0.637-1.417,1.417V13.667L10.107,13.667z"/>
</svg>
