<?xml version="1.0" encoding="utf-8"?>
<!-- Generator: Adobe Illustrator 16.0.0, SVG Export Plug-In . SVG Version: 6.00 Build 0)  -->
<!DOCTYPE svg PUBLIC "-//W3C//DTD SVG 1.1//EN" "http://www.w3.org/Graphics/SVG/1.1/DTD/svg11.dtd">
<svg version="1.1" id="Layer_1" xmlns="http://www.w3.org/2000/svg" xmlns:xlink="http://www.w3.org/1999/xlink" x="0px" y="0px"
	 width="64px" height="52px" viewBox="0 0 64 52" enable-background="new 0 0 64 52" xml:space="preserve">
<path fill-rule="evenodd" clip-rule="evenodd" fill="#333333" d="M61.047,17.85c0.781,0,1.416,0.635,1.416,1.417
	c0,0.782-0.635,1.417-1.416,1.417h-0.752l-4.84,25.601c-0.482,2.563-2.68,4.389-5.289,4.389H37.934H26.447H14.229
	c-2.609,0-4.805-1.826-5.289-4.389C7.326,37.752,5.713,29.218,4.1,20.684H3.35c-0.783,0-1.418-0.635-1.418-1.417
	c0-0.783,0.635-1.417,1.418-1.417C22.582,17.85,41.814,17.85,61.047,17.85L61.047,17.85z M21.225,15.4
	c-0.77,0.88-2.109,0.97-2.99,0.199c-0.879-0.771-0.969-2.109-0.199-2.99l9.732-11.098c0.771-0.881,2.109-0.97,2.99-0.2
	c0.881,0.771,0.969,2.109,0.199,2.99L21.225,15.4L21.225,15.4z M46.342,12.589c0.77,0.881,0.682,2.22-0.199,2.99
	c-0.881,0.77-2.219,0.681-2.99-0.2L33.438,4.301c-0.77-0.88-0.682-2.219,0.199-2.99c0.881-0.77,2.221-0.681,2.99,0.2L46.342,12.589
	L46.342,12.589z M21.061,29.621l0.408,4.184h9.318l-0.002-4.184H21.061L21.061,29.621z M21.746,36.639
	c0.137,1.395,0.279,2.789,0.41,4.184h8.631v-4.184H21.746L21.746,36.639z M22.434,43.656c0.23,2.334,1.434,4.183,4.014,4.183h4.338
	l0.002-4.183H22.434L22.434,43.656z M20.924,47.839c-1.008-1.402-1.168-2.552-1.328-4.183H11.32l0.398,2.109
	c0.23,1.221,1.268,2.073,2.51,2.073H20.924L20.924,47.839z M19.318,40.822c-0.137-1.395-0.273-2.789-0.41-4.184H9.994l0.789,4.184
	H19.318L19.318,40.822z M18.631,33.805l-0.408-4.184H8.666l0.791,4.184H18.631L18.631,33.805z M37.934,47.839
	c2.537,0,3.787-1.856,4.014-4.183h-8.338v4.183H37.934L37.934,47.839z M42.225,40.822l0.41-4.184h-9.025v4.184H42.225L42.225,40.822
	z M42.912,33.805l0.41-4.184h-9.713v4.184H42.912L42.912,33.805z M46.16,29.621l-0.408,4.184h9.186l0.791-4.184H46.16L46.16,29.621z
	 M45.473,36.639l-0.408,4.184h8.547l0.791-4.184H45.473L45.473,36.639z M44.787,43.656c-0.16,1.631-0.32,2.78-1.328,4.183h6.707
	c1.242,0,2.279-0.853,2.51-2.073l0.4-2.109H44.787L44.787,43.656z M11.451,26.28c1.406-0.098,2.465-1.317,2.367-2.723
	c-0.098-1.405-1.316-2.465-2.723-2.367c-1.404,0.098-2.465,1.317-2.367,2.722C8.828,25.318,10.047,26.378,11.451,26.28L11.451,26.28
	z M52.943,26.28c-1.406-0.098-2.465-1.317-2.367-2.723c0.098-1.405,1.316-2.465,2.723-2.367c1.404,0.098,2.465,1.317,2.367,2.722
	S54.348,26.378,52.943,26.28L52.943,26.28z"/>
</svg>
