<?xml version="1.0" encoding="utf-8"?>
<!-- Generator: Adobe Illustrator 16.0.0, SVG Export Plug-In . SVG Version: 6.00 Build 0)  -->
<!DOCTYPE svg PUBLIC "-//W3C//DTD SVG 1.1//EN" "http://www.w3.org/Graphics/SVG/1.1/DTD/svg11.dtd">
<svg version="1.1" id="Layer_1" xmlns="http://www.w3.org/2000/svg" xmlns:xlink="http://www.w3.org/1999/xlink" x="0px" y="0px"
	 width="44px" height="24px" viewBox="0 0 44 24" enable-background="new 0 0 44 24" xml:space="preserve">
<path fill="#010002" d="M41,2c-0.276,0-0.526,0.112-0.707,0.293L22,19.623L3.707,2.293C3.526,2.112,3.276,2,3,2C2.447,2,2,2.447,2,3
	c0,0.276,0.111,0.526,0.293,0.707l19,18C21.474,21.889,21.724,22,22,22s0.526-0.111,0.707-0.293l19-18C41.889,3.526,42,3.276,42,3
	C42,2.447,41.553,2,41,2"/>
</svg>
