<?xml version="1.0" encoding="utf-8"?>
<!-- Generator: Adobe Illustrator 16.0.0, SVG Export Plug-In . SVG Version: 6.00 Build 0)  -->
<!DOCTYPE svg PUBLIC "-//W3C//DTD SVG 1.1//EN" "http://www.w3.org/Graphics/SVG/1.1/DTD/svg11.dtd">
<svg version="1.1" id="Layer_1" xmlns="http://www.w3.org/2000/svg" xmlns:xlink="http://www.w3.org/1999/xlink" x="0px" y="0px"
	 width="44px" height="24px" viewBox="0 0 44 24" enable-background="new 0 0 44 24" xml:space="preserve">
<path fill="#010002" d="M41.707,20.293l-19-18C22.526,2.112,22.276,2,22,2c-0.275,0-0.526,0.112-0.707,0.293l-19,18
	C2.111,20.475,2,20.724,2,21c0,0.553,0.447,1,1,1c0.276,0,0.526-0.111,0.707-0.293L22,4.377l18.293,17.33
	C40.474,21.889,40.724,22,41,22c0.553,0,1-0.447,1-1C42,20.724,41.889,20.475,41.707,20.293"/>
</svg>
